
        <svg xmlns="http://www.w3.org/2000/svg" xmlns:xlink="http://www.w3.org/1999/xlink" version="1.1" width="3154.182529210352" 
        height="566.0087817685405" viewBox="0 0 3154.182529210352 566.0087817685405">
			
			<g transform="scale(7.709126460517609) translate(10, 10)">
				<defs id="SvgjsDefs3089"><linearGradient id="SvgjsLinearGradient3098"><stop id="SvgjsStop3099" stop-color="#8f5e25" offset="0"></stop><stop id="SvgjsStop3100" stop-color="#fbf4a1" offset="0.5"></stop><stop id="SvgjsStop3101" stop-color="#8f5e25" offset="1"></stop></linearGradient><linearGradient id="SvgjsLinearGradient3102"><stop id="SvgjsStop3103" stop-color="#8f5e25" offset="0"></stop><stop id="SvgjsStop3104" stop-color="#fbf4a1" offset="0.5"></stop><stop id="SvgjsStop3105" stop-color="#8f5e25" offset="1"></stop></linearGradient></defs><g id="SvgjsG3090" featureKey="sloganFeature-0" transform="matrix(0.7088852168895464,0,0,0.7088852168895464,84.29111562816749,38.959353384870276)" fill="url(#SvgjsLinearGradient3098)"><path d="M9.58 18 c2.34 0 4.18 -0.74 5.52 -2.18 l1.88 1.04 c-0.94 1.1 -2.02 1.9 -3.22 2.4 s-2.64 0.74 -4.3 0.74 c-2.34 0 -4.28 -0.58 -5.82 -1.76 c-1.76 -1.34 -2.64 -3.08 -2.64 -5.24 c0 -2.14 0.88 -3.88 2.68 -5.22 c1.56 -1.18 3.48 -1.78 5.78 -1.78 c3.32 0 5.84 1.14 7.62 3.44 l-2 0.7 c-1.34 -1.42 -3.2 -2.14 -5.62 -2.14 c-1.82 0 -3.32 0.48 -4.46 1.42 c-1.16 0.94 -1.72 2.12 -1.72 3.58 c0 1.48 0.56 2.7 1.7 3.62 s2.68 1.38 4.6 1.38 z M31.293 20 l2.76 -5.24 l9.7 0.02 l-3.58 -6.78 l-2.64 4.96 l-2.52 0 l3.7 -6.96 l2.9 0 l7.42 14 l-2.54 0 l-1.62 -3.14 l-9.42 0 l-1.62 3.14 l-2.54 0 z M63.246 20 l0 -14 l2.32 0 l0 14 l-2.32 0 z M76.82600000000001 6 l2.32 0 l0 14 l-2.9 0 l-8.86 -9.52 l0 -3.06 l9.44 10.06 l0 -11.48 z M93.35900000000001 20 l0 -14 l2.32 0 l0 14 l-2.32 0 z M106.93900000000001 6 l2.32 0 l0 14 l-2.9 0 l-8.86 -9.52 l0 -3.06 l9.44 10.06 l0 -11.48 z M123.47200000000001 20 l2.76 -5.24 l9.7 0.02 l-3.58 -6.78 l-2.64 4.96 l-2.52 0 l3.7 -6.96 l2.9 0 l7.42 14 l-2.54 0 l-1.62 -3.14 l-9.42 0 l-1.62 3.14 l-2.54 0 z M169.485 12.780000000000001 c1.6 0.54 2.4 1.72 2.4 3.54 c0 2.46 -1.76 3.68 -5.3 3.68 l-11.16 0 l0 -2.1 l11.18 0.02 c1.94 0 2.9 -0.64 2.9 -1.92 c0 -1.36 -0.84 -2.06 -2.54 -2.06 l-9.22 0 l0 2.14 l-2.32 0 l0 -10.08 l11.32 0 c1.42 0 2.52 0.34 3.34 1.04 s1.22 1.62 1.22 2.78 c0 1.28 -0.6 2.28 -1.82 2.96 z M168.38500000000002 11.3 c0.44 -0.36 0.66 -0.82 0.66 -1.34 c0 -0.58 -0.2 -1.02 -0.58 -1.36 c-0.4 -0.34 -0.92 -0.52 -1.6 -0.52 l-9.12 0 l0 3.78 l9.04 0 c0.64 0 1.18 -0.18 1.6 -0.56 z M186.098 6.02 l2.32 0 l0 14 l-2.32 0 l0 -14 z M216.93100000000004 13.04 c0.84 0.64 1.26 1.54 1.26 2.7 c0 1.48 -0.66 2.62 -1.98 3.44 s-3.2 1.22 -5.68 1.22 c-3.34 0 -5.98 -0.68 -7.94 -2.06 l0.88 -1.98 c2.2 1.34 4.56 2 7.08 2 c1.64 0 2.92 -0.22 3.82 -0.68 c0.86 -0.44 1.3 -1.04 1.3 -1.8 c0 -0.88 -0.58 -1.48 -1.7 -1.78 c-0.6 -0.14 -2.2 -0.3 -4.8 -0.48 c-2.32 -0.16 -3.94 -0.46 -4.86 -0.92 c-1.1 -0.54 -1.64 -1.46 -1.64 -2.74 c0 -1.32 0.62 -2.36 1.86 -3.12 c1.22 -0.76 2.96 -1.14 5.22 -1.14 c2.8 0 5.18 0.6 7.14 1.8 l-0.98 1.84 c-2.08 -1.06 -4.18 -1.58 -6.34 -1.58 c-1.44 0 -2.54 0.16 -3.3 0.5 s-1.14 0.8 -1.14 1.4 c0 0.62 0.42 1.06 1.22 1.34 c0.58 0.22 1.54 0.36 2.84 0.44 c1.94 0.12 3.22 0.22 3.84 0.3 c1.76 0.24 3.06 0.66 3.9 1.3 z M258.877 18 c2.34 0 4.18 -0.74 5.52 -2.18 l1.88 1.04 c-0.94 1.1 -2.02 1.9 -3.22 2.4 s-2.64 0.74 -4.3 0.74 c-2.34 0 -4.28 -0.58 -5.82 -1.76 c-1.76 -1.34 -2.64 -3.08 -2.64 -5.24 c0 -2.14 0.88 -3.88 2.68 -5.22 c1.56 -1.18 3.48 -1.78 5.78 -1.78 c3.32 0 5.84 1.14 7.62 3.44 l-2 0.7 c-1.34 -1.42 -3.2 -2.14 -5.62 -2.14 c-1.82 0 -3.32 0.48 -4.46 1.42 c-1.16 0.94 -1.72 2.12 -1.72 3.58 c0 1.48 0.56 2.7 1.7 3.62 s2.68 1.38 4.6 1.38 z M293.33000000000004 8.04 c1.24 1.32 1.88 2.96 1.88 4.94 s-0.64 3.62 -1.9 4.94 c-1.42 1.52 -3.28 2.26 -5.54 2.26 c-2.24 0 -4.12 -0.76 -5.56 -2.28 c-1.24 -1.34 -1.88 -2.98 -1.88 -4.92 c0 -1.96 0.64 -3.6 1.88 -4.92 c1.44 -1.52 3.32 -2.3 5.56 -2.3 c2.28 0 4.14 0.78 5.56 2.28 z M291.47 16.7 c0.98 -0.92 1.46 -2.16 1.46 -3.72 s-0.48 -2.8 -1.46 -3.72 c-0.94 -0.94 -2.2 -1.4 -3.7 -1.4 c-1.62 0 -2.9 0.54 -3.88 1.62 c-0.86 0.94 -1.3 2.1 -1.3 3.5 c0 1.5 0.5 2.74 1.48 3.7 c0.94 0.94 2.2 1.42 3.7 1.42 c1.52 0 2.78 -0.46 3.7 -1.4 z M309.30300000000005 17.88 l2.34 0 l0 2.12 l-2.34 0 l0 -2.12 z"></path></g><g id="SvgjsG3091" featureKey="nameLeftFeature-0" transform="matrix(0.9394448316594795,0,0,0.9394448316594795,-1.8788901112811627,-9.822403098912103)" fill="#026bff"><path d="M31.04 14.399999999999999 c1.68 1.6 2.48 3.72 2.48 6.36 c0 2.8 -0.84 4.92 -2.6 6.4 c-1.72 1.48 -4.28 2.2 -7.6 2.2 l-16.64 0 l0 10.64 l-4.68 0 l0 -14.8 l21.4 0 c3.6 0 5.4 -1.48 5.4 -4.36 c0 -3.08 -1.92 -4.64 -5.72 -4.64 l-16.4 0 l0 5.36 l-4.68 0 l0 -9.56 l22.2 0.04 c2.88 0 5.16 0.8 6.84 2.36 z M67.248 16.08 c2.48 2.64 3.76 5.92 3.76 9.88 s-1.28 7.24 -3.8 9.88 c-2.84 3.04 -6.56 4.52 -11.08 4.52 c-4.48 0 -8.24 -1.52 -11.12 -4.56 c-2.48 -2.68 -3.76 -5.96 -3.76 -9.84 c0 -3.92 1.28 -7.2 3.76 -9.84 c2.88 -3.04 6.64 -4.6 11.12 -4.6 c4.56 0 8.28 1.56 11.12 4.56 z M63.528000000000006 33.4 c1.96 -1.84 2.92 -4.32 2.92 -7.44 s-0.96 -5.6 -2.92 -7.44 c-1.88 -1.88 -4.4 -2.8 -7.4 -2.8 c-3.24 0 -5.8 1.08 -7.76 3.24 c-1.72 1.88 -2.6 4.2 -2.6 7 c0 3 1 5.48 2.96 7.4 c1.88 1.88 4.4 2.84 7.4 2.84 c3.04 0 5.56 -0.92 7.4 -2.8 z M79.01599999999999 12 l31.4 0 l0 4.2 l-31.4 0 l0 -4.2 z M92.37599999999999 20 l4.64 0 l0 20 l-4.64 0 l0 -20 z"></path></g><g id="SvgjsG3092" featureKey="inlineSymbolFeature-0" transform="matrix(0.43114822800343555,0,0,0.43114822800343555,117.23767544338902,-7.494436408743671)" fill="url(#SvgjsLinearGradient3102)"><title xmlns="http://www.w3.org/2000/svg">05_collections</title><path xmlns="http://www.w3.org/2000/svg" d="M85.82,74.51l-0.2.17C79,80.49,71.17,83,64.12,81.62c-6.36-1.26-10.91-5.46-15.3-9.52-4.76-4.4-9.25-8.55-15.87-9.26S19.1,65.18,13.39,71.29c2.22,3.09,12.78,15.79,30,5.3a1,1,0,0,1,1,1.71c-5.18,3.15-9.84,4.34-13.91,4.34-12.25,0-19.19-10.76-19.28-10.91a1,1,0,0,1,.1-1.2c6.23-7,14.17-10.51,21.79-9.69,7.28,0.78,12.23,5.36,17,9.78,4.38,4,8.52,7.88,14.33,9,6.44,1.28,13.65-1.08,19.78-6.48l0.24-.2a26.68,26.68,0,0,0,2.23-2c-3-7.08-11.17-8.72-12.8-9a36.92,36.92,0,0,1-9.55,4.13,1,1,0,0,1-.27,0,1,1,0,0,1-.27-2c10.19-2.9,16.5-8.43,18.78-16.42a24.11,24.11,0,0,0,.53-10.5c-13.83-1.42-19.66,6.85-20.52,8.2-0.77,5.4-3.22,10.78-7.32,16.08a1,1,0,0,1-1.58-1.22C57.67,55.26,60,50.14,60.69,45h0a24.07,24.07,0,0,0,0-6.45c-1.32-10-8.65-17-10.86-18.91C38.27,30.34,40.34,41.9,42.79,48.1a38.83,38.83,0,0,1,2.4,4.71,1,1,0,0,1-1.74,1,26.32,26.32,0,0,1-2.25-4.45c-3.6-6.1-8.47-9.9-14.52-11.31a22.17,22.17,0,0,0-9.43-.13c-2.89,8.75,3.16,16.64,3.22,16.72a1,1,0,0,1-1.58,1.23c-0.29-.37-7-9.14-3.35-19.15a1,1,0,0,1,.66-0.61,23.88,23.88,0,0,1,23.28,7.5c-1.38-7.14-.54-17,9.67-26a1,1,0,0,1,1.27,0C50.87,17.88,61,25.73,62.7,38.31A26.1,26.1,0,0,1,62.92,42c3.07-3.23,9.68-8,21.21-6.59a1,1,0,0,1,.84.74c0,0.18,3.59,14.77-8.74,24.3,3.52,0.9,10,3.45,12.58,10.28C89.13,71.52,88.62,72.16,85.82,74.51Z"></path></g><g id="SvgjsG3093" featureKey="nameRightFeature-0" transform="matrix(0.9676282457234326,0,0,0.9676282457234326,158.34271870897066,-10.611538948681192)" fill="#026bff"><path d="M47.288 14.399999999999999 c1.68 1.6 2.48 3.72 2.48 6.36 c0 2.8 -0.84 4.92 -2.6 6.4 c-1.72 1.48 -4.28 2.2 -7.6 2.2 l-16.64 0 l0 10.64 l-4.68 0 l0 -14.8 l21.4 0 c3.6 0 5.4 -1.48 5.4 -4.36 c0 -3.08 -1.92 -4.64 -5.72 -4.64 l-16.4 0 l0 5.36 l-4.68 0 l0 -9.56 l22.2 0.04 c2.88 0 5.16 0.8 6.84 2.36 z M58.016000000000005 40 l5.52 -10.48 l19.4 0.04 l-7.16 -13.56 l-5.28 9.92 l-5.04 0 l7.4 -13.92 l5.8 0 l14.84 28 l-5.08 0 l-3.24 -6.28 l-18.84 0 l-3.24 6.28 l-5.08 0 z M101.744 40 l0 -28 l4.64 0 l0 23.84 l15.24 0 l0 4.16 l-19.88 0 z M129.872 40 l5.52 -10.48 l19.4 0.04 l-7.16 -13.56 l-5.28 9.92 l-5.04 0 l7.4 -13.92 l5.8 0 l14.84 28 l-5.08 0 l-3.24 -6.28 l-18.84 0 l-3.24 6.28 l-5.08 0 z M190.76 36 c4.68 0 8.36 -1.48 11.04 -4.36 l3.76 2.08 c-1.88 2.2 -4.04 3.8 -6.44 4.8 s-5.28 1.48 -8.6 1.48 c-4.68 0 -8.56 -1.16 -11.64 -3.52 c-3.52 -2.68 -5.28 -6.16 -5.28 -10.48 c0 -4.28 1.76 -7.76 5.36 -10.44 c3.12 -2.36 6.96 -3.56 11.56 -3.56 c6.64 0 11.68 2.28 15.24 6.88 l-4 1.4 c-2.68 -2.84 -6.4 -4.28 -11.24 -4.28 c-3.64 0 -6.64 0.96 -8.92 2.84 c-2.32 1.88 -3.44 4.24 -3.44 7.16 c0 2.96 1.12 5.4 3.4 7.24 s5.36 2.76 9.2 2.76 z M214.00799999999998 32.16 l0 -20.16 l24.48 0 l0 4.16 l-19.84 0 l0 7.2 l19.88 0 l0 4.16 l-19.88 0 l0 4.64 l-4.64 0 z M214.00799999999998 40 l0 -4.2 l24.48 0 l0 4.2 l-24.48 0 z"></path></g>
			</g>
		</svg>
	